<?xml version="1.0" encoding="UTF-8" standalone="no"?><!DOCTYPE svg PUBLIC "-//W3C//DTD SVG 1.1//EN" "http://www.w3.org/Graphics/SVG/1.1/DTD/svg11.dtd"><svg width="100%" height="100%" viewBox="0 0 480 480" version="1.1" xmlns="http://www.w3.org/2000/svg" xmlns:xlink="http://www.w3.org/1999/xlink" xml:space="preserve" xmlns:serif="http://www.serif.com/" style="fill-rule:evenodd;clip-rule:evenodd;stroke-linecap:round;stroke-linejoin:round;stroke-miterlimit:1.5;"><path d="M201.169,207.547l224.51,-15.276c0,0 20.432,59.232 -12.121,131.162c-8.551,18.893 -20.402,41.98 -35.426,51.144c-23.258,14.185 -84.103,52.048 -133.521,-1.567c-40.772,-44.235 -43.442,-165.463 -43.442,-165.463Z" style="fill:#a2bd8c;"/><path d="M201.169,207.547l176.963,-8.458l-152.659,144.874l-15.122,-12.496l-9.182,-123.92Z" style="fill:#ebfbdd;"/><path d="M201.169,207.547l155.334,-8.458l-148.853,95.929l-6.481,-87.471Z" style="fill:#fafff5;"/><path d="M240.767,433.275c77.614,-3.352 113.628,-36.613 137.365,-58.698l0,0c-177.349,107.711 -230.062,-196.982 -58.712,-168.304l0,0c-47.043,-13.091 -84.795,-8.541 -113.09,15.709c-33.027,28.305 -42.896,78.446 -29.22,132.512c19.641,77.645 72.534,80.329 62.89,78.781" style="fill:#bfe5ff;"/><path d="M319.42,206.273c-153.3,-41.23 -172.389,113.77 -124.883,189.651c11.545,18.44 27.023,32.208 45.463,37.351c-31.878,0.109 -66.75,-8.759 -96.64,-26.092c-43.64,-23.168 -23.36,-265.122 176.06,-200.91" style="fill:#99c6ea;"/><path d="M319.42,206.273c-199.42,-64.212 -219.7,177.742 -176.06,200.91c-22.861,-12.898 -44.297,-32.198 -60.055,-54.987c-7.365,-84.28 91.187,-211.874 236.115,-145.923" style="fill:#5fa0cb;"/><path d="M48.61,256.676c55.359,-33.668 146.213,-117.652 270.81,-50.403c-144.928,-65.951 -243.48,61.643 -236.115,145.923c-17.633,-22.161 -29.341,-53.772 -34.695,-95.52" style="fill:#3e7ca4;"/><g id="sun"><path d="M376.965,106.776c0,0 -7.007,-7.428 -21.314,-18.731c-13.199,-10.428 -23.056,-14.975 -23.056,-14.975l-264.111,81.878l-4.604,9.803l50.116,-2.87l262.969,-55.105Z" style="fill:#ffc200;"/><path d="M68.484,154.948l11.574,-19.871l169.419,-85.571c0,0 6.294,-4.766 40.316,6.3c34.022,11.067 42.802,17.264 42.802,17.264" style="fill:#ffe182;"/><path d="M249.922,49.275c0,0 -170.727,86.092 -169.863,85.802c0.863,-0.289 16.157,-32.651 71.541,-64.255c43.306,-24.713 98.322,-21.547 98.322,-21.547Z" style="fill:#ffc200;"/><path d="M406.204,145.145l-292.208,16.736l262.969,-55.105c0,0 6.819,6.019 15.689,18.091c9.652,13.135 13.55,20.278 13.55,20.278" style="fill:#ffe282;"/></g><path d="M428.522,277.811c6.589,-36.906 5.522,-82.485 -22.318,-132.666l0,0l-342.324,19.606l0,-0.32c-18.024,39.624 -16.409,81.936 -15.27,91.926l0,0.319c111.112,-71.364 173.893,-118.958 316.421,-23.165c19.552,13.142 40.606,28.982 63.491,47.829" style="fill:#f0caae;"/><g><path d="M48.61,256.676c111.112,-71.364 173.893,-118.958 316.421,-23.165c19.552,13.142 40.606,28.982 63.491,47.829" style="fill:none;stroke:#b15b00;stroke-width:5.33px;"/><path d="M48.61,246.756c111.112,-71.364 171.081,-115.065 316.421,-23.165c19.911,12.591 40.606,28.982 63.491,47.829" style="fill:none;stroke:#b15b00;stroke-width:5.33px;"/><path d="M63.88,164.751l342.324,-19.606" style="fill:none;stroke:#b15a00;stroke-width:5.33px;"/><path d="M60.535,172.942l349.932,-20.041" style="fill:none;stroke:#b15a00;stroke-width:5.33px;"/></g><path d="M260.764,384.498l161.143,-204.769l3.772,12.542l-116.06,205.407c0,0 -10.667,0.589 -24.254,-2.494c-16.697,-3.789 -24.601,-10.686 -24.601,-10.686Z" style="fill:#6a9a40;"/><path d="M309.619,397.678l116.06,-205.407c0,0 20.432,59.232 -12.121,131.162c-8.551,18.893 -20.402,41.98 -35.426,51.144c-42.448,25.888 -68.513,23.101 -68.513,23.101Z" style="fill:#507d27;"/><path d="M240,49.275c105.968,0 192,86.033 192,192c0,105.968 -86.032,192 -192,192c-54.809,0 -104.286,-23.015 -139.283,-59.901c-32.665,-34.428 -52.717,-80.94 -52.717,-132.099c0,-105.967 86.032,-192 192,-192" style="fill:none;stroke:#69a7e5;stroke-width:6.67px;"/></svg>