<?xml version="1.0" encoding="UTF-8" standalone="no"?>
<!DOCTYPE svg PUBLIC "-//W3C//DTD SVG 1.1//EN" "http://www.w3.org/Graphics/SVG/1.1/DTD/svg11.dtd">
<svg width="100%" height="100%" viewBox="0 0 384 384" version="1.1" xmlns="http://www.w3.org/2000/svg" xmlns:xlink="http://www.w3.org/1999/xlink" xml:space="preserve" xmlns:serif="http://www.serif.com/" style="fill-rule:evenodd;clip-rule:evenodd;stroke-linecap:round;stroke-linejoin:round;stroke-miterlimit:1.5;">
    <g transform="matrix(0.32,0,0,0.32,0,0)">
        <g transform="matrix(0.98125,0,0,0.978557,-135.279,-135.109)">
            <g transform="matrix(1,0,0,1,155.458,60.4992)">
                <path d="M473.195,588.084L1174.79,540.348C1174.79,540.348 1238.64,725.448 1136.91,950.228C1110.19,1009.27 1073.15,1081.42 1026.2,1110.05C953.522,1154.38 763.383,1272.7 608.953,1105.16C481.54,966.922 473.195,588.084 473.195,588.084Z" style="fill:rgb(162,189,140);"/>
            </g>
            <g transform="matrix(1,0,0,1,155.458,60.4992)">
                <path d="M473.195,588.084L1026.2,561.654L549.146,1014.38L501.89,975.336L473.195,588.084Z" style="fill:rgb(235,251,221);"/>
            </g>
            <g transform="matrix(1,0,0,1,155.458,60.4992)">
                <path d="M473.195,588.084L958.614,561.654L493.45,861.433L473.195,588.084Z" style="fill:rgb(250,255,245);"/>
            </g>
            <path d="M752.398,1353.99C994.94,1343.51 1107.48,1239.57 1181.66,1170.55L1181.66,1170.55C627.445,1507.15 462.72,554.983 998.188,644.604L998.187,644.604C851.177,603.693 733.203,617.912 644.782,693.693C541.573,782.148 510.731,938.838 553.47,1107.8C614.848,1350.43 780.137,1358.82 750,1353.99" style="fill:rgb(191,229,255);"/>
            <path d="M998.187,644.604C519.126,515.76 459.471,1000.13 607.929,1237.26C644.007,1294.89 692.374,1337.91 750,1353.99C650.38,1354.32 541.408,1326.61 448,1272.45C311.624,1200.05 374.999,443.942 998.187,644.604" style="fill:rgb(153,198,234);"/>
            <path d="M998.187,644.604C374.999,443.942 311.624,1200.05 448,1272.45C376.559,1232.14 309.573,1171.83 260.327,1100.61C237.311,837.239 545.288,438.506 998.186,644.603" style="fill:rgb(95,160,203);"/>
            <path d="M151.906,802.112C324.903,696.899 608.823,434.451 998.186,644.603C545.288,438.506 237.311,837.239 260.327,1100.61C205.226,1031.36 168.637,932.576 151.906,802.111" style="fill:rgb(62,124,164);"/>
            <g id="sun">
                <g transform="matrix(1,0,0,1,29.7398,133.829)">
                    <path d="M1148.28,199.846C1148.28,199.846 1126.38,176.632 1081.67,141.312C1040.42,108.726 1009.62,94.515 1009.62,94.515L184.273,350.383L169.884,381.018L326.497,372.048L1148.28,199.846Z" style="fill:rgb(255,194,0);"/>
                </g>
                <path d="M214.013,484.212L250.182,422.117L779.617,154.705C779.617,154.705 799.286,139.812 905.603,174.394C1011.92,208.977 1039.36,228.344 1039.36,228.344" style="fill:rgb(255,225,130);"/>
                <path d="M781.006,153.986C781.006,153.986 247.486,423.021 250.183,422.116C252.88,421.211 300.676,320.08 473.749,221.318C609.082,144.09 781.006,153.986 781.006,153.986Z" style="fill:rgb(255,194,0);"/>
                <path d="M1269.39,453.578L356.237,505.877L1178.02,333.675C1178.02,333.675 1199.33,352.484 1227.05,390.209C1257.21,431.257 1269.39,453.578 1269.39,453.578" style="fill:rgb(255,226,130);"/>
            </g>
            <path d="M1339.13,868.159C1359.72,752.827 1356.39,610.392 1269.39,453.578L1269.39,453.578L199.623,514.847L199.623,513.847C143.3,637.673 148.346,769.896 151.906,801.114L151.906,802.111C499.13,579.1 695.322,430.367 1140.72,729.723C1201.82,770.79 1267.62,820.29 1339.13,879.188" style="fill:rgb(240,202,174);"/>
            <g>
                <path d="M151.906,802.111C499.13,579.1 695.322,430.367 1140.72,729.723C1201.82,770.79 1267.62,820.29 1339.13,879.188" style="fill:none;stroke:rgb(177,91,0);stroke-width:17.01px;"/>
                <g transform="matrix(1,0,0,1,0,-31)">
                    <path d="M151.906,802.111C499.13,579.1 686.535,442.534 1140.72,729.723C1202.94,769.068 1267.62,820.29 1339.13,879.188" style="fill:none;stroke:rgb(177,91,0);stroke-width:17.01px;"/>
                </g>
                <g transform="matrix(1,0,0,1,0,-202)">
                    <path d="M199.623,716.847L1269.39,655.578" style="fill:none;stroke:rgb(177,90,0);stroke-width:17.01px;"/>
                </g>
                <g transform="matrix(1,0,0,1,0,-177)">
                    <path d="M189.173,717.445L1282.71,654.815" style="fill:none;stroke:rgb(177,90,0);stroke-width:17.01px;"/>
                </g>
            </g>
            <path d="M814.887,1201.56L1318.46,561.654L1330.25,600.847L967.56,1242.74C967.56,1242.74 934.225,1244.59 891.766,1234.95C839.588,1223.11 814.887,1201.56 814.887,1201.56Z" style="fill:rgb(106,154,64);"/>
            <g transform="matrix(1,0,0,1,155.458,60.4992)">
                <path d="M812.102,1182.25L1174.79,540.348C1174.79,540.348 1238.64,725.448 1136.91,950.228C1110.19,1009.27 1073.15,1081.42 1026.2,1110.05C893.556,1190.95 812.102,1182.25 812.102,1182.25Z" style="fill:rgb(80,125,39);"/>
            </g>
            <g transform="matrix(1.0006,0,0,1.0006,153.625,153.986)">
                <path d="M596.014,0C926.964,0 1195.65,268.689 1195.65,599.638C1195.65,930.587 926.964,1199.28 596.014,1199.28C424.839,1199.28 270.319,1127.39 161.019,1012.2C59,904.673 -3.623,759.411 -3.623,599.638C-3.623,268.689 265.065,0 596.014,0" style="fill:none;stroke:rgb(105,167,229);stroke-width:21.25px;"/>
            </g>
        </g>
    </g>
</svg>
